<?xml version="1.0" encoding="iso-8859-1"?>
<!-- Generator: Adobe Illustrator 21.0.0, SVG Export Plug-In . SVG Version: 6.00 Build 0)  -->
<svg xmlns="http://www.w3.org/2000/svg" xmlns:xlink="http://www.w3.org/1999/xlink" version="1.1" id="Capa_1" x="0px" y="0px" viewBox="0 0 512 512" style="enable-background:new 0 0 512 512;" xml:space="preserve" width="512" height="512">
<g>
	<g>
		<path style="fill:none;stroke:#000000;stroke-width:30;stroke-linecap:round;stroke-linejoin:round;stroke-miterlimit:10;" d="    M367.1,416.37c0-3.82,98.9-4.81,98.9-184.81S316,15,256.17,15C196,15,46,51.75,46,231.75s149.52,215.77,209.52,215.77    c31.75,0,45.05-5.57,48.43-5.57c6.34,0,19.24,55.05,89.91,55.05c9.29,0,18.06-0.87,26.35-1.46c0-13.6,0.01-27.46,0.01-38.21    c-1.71-0.54-3.42-1.09-3.42-1.09C378.9,444.2,367.1,418.01,367.1,416.37z M335.42,353.21c-27.93-28.53-60.58-43.14-99.28-43.14    c-1.91,0-3.83,0.03-5.76,0.1v42.32c8.69,1.54,34.06,7.2,51.86,38.54c-7.89,2.59-15.69,3.81-23.62,3.81    c-3.76,0-109.11,6.03-109.11-167.71c0-134.33,74.85-157.8,107.61-157.8c34.72,0,108.45,22.29,108.45,166.1    C365.57,311.13,351.18,328.38,335.42,353.21z"/>
	</g>
</g>















</svg>
