<?xml version="1.0" encoding="iso-8859-1"?>
<!-- Generator: Adobe Illustrator 21.0.0, SVG Export Plug-In . SVG Version: 6.00 Build 0)  -->
<svg xmlns="http://www.w3.org/2000/svg" xmlns:xlink="http://www.w3.org/1999/xlink" version="1.1" id="Capa_1" x="0px" y="0px" viewBox="0 0 512 512" style="enable-background:new 0 0 512 512;" xml:space="preserve" width="512" height="512">
<g>
	<path d="M191.733,128.533c-70.285,0-127.467,57.182-127.467,127.467s57.182,127.467,127.467,127.467S319.2,326.285,319.2,256   S262.019,128.533,191.733,128.533z M191.733,353.467c-53.743,0-97.467-43.724-97.467-97.467s43.724-97.467,97.467-97.467   S289.2,202.257,289.2,256S245.477,353.467,191.733,353.467z"/>
	<path d="M191.733,176.733c-25.989,0-47.133,21.144-47.133,47.133c0,12.41,4.829,23.708,12.696,32.134   c-7.867,8.426-12.696,19.724-12.696,32.134c0,25.989,21.144,47.133,47.133,47.133s47.133-21.144,47.133-47.133   c0-12.41-4.829-23.708-12.696-32.134c7.867-8.426,12.696-19.724,12.696-32.134C238.867,197.877,217.723,176.733,191.733,176.733z    M191.733,206.733c9.447,0,17.133,7.686,17.133,17.133S201.181,241,191.733,241s-17.133-7.687-17.133-17.134   S182.286,206.733,191.733,206.733z M191.733,305.267c-9.447,0-17.133-7.686-17.133-17.133S182.286,271,191.733,271   s17.133,7.687,17.133,17.134S201.181,305.267,191.733,305.267z"/>
	<path d="M320.267,64.267c-22.095,0-43.696,3.732-64.301,11.08c-20.091-7.165-41.712-11.08-64.233-11.08   C86.011,64.267,0,150.278,0,256s86.011,191.733,191.733,191.733c22.521,0,44.141-3.915,64.233-11.08   c20.605,7.349,42.205,11.08,64.301,11.08C425.989,447.733,512,361.722,512,256S425.989,64.267,320.267,64.267z M447.733,256   c0-27.628,6.421-53.98,17.088-72.478C475.804,205.337,482,229.957,482,256s-6.196,50.663-17.178,72.478   C454.155,309.98,447.733,283.628,447.733,256z M30,256c0-89.18,72.553-161.733,161.733-161.733S353.467,166.82,353.467,256   s-72.553,161.733-161.733,161.733S30,345.18,30,256z M320.267,417.733c-7.756,0-15.438-0.543-23.016-1.622   c-0.032-0.015-0.056-0.035-0.087-0.051c51.954-34.337,86.302-93.258,86.302-160.06c0-66.778-34.324-125.682-86.248-160.024   c0.013-0.028,0.018-0.06,0.032-0.087c7.578-1.079,15.26-1.622,23.016-1.622c51.458,0,97.377,24.158,127.019,61.725   c-18.447,23.737-29.552,60.635-29.552,100.008s11.106,76.271,29.552,100.008C417.644,393.576,371.724,417.733,320.267,417.733z"/>
</g>















</svg>
