<?xml version="1.0" encoding="UTF-8"?>
<svg xmlns="http://www.w3.org/2000/svg" xmlns:xlink="http://www.w3.org/1999/xlink" width="512" height="512" viewBox="0 0 60 59" version="1.1"><!-- Generator: Sketch 51.3 (57544) - http://www.bohemiancoding.com/sketch --><title>024 - Pencil</title><desc>Created with Sketch.</desc><defs/><g id="Page-1" stroke="none" stroke-width="1" fill="none" fill-rule="evenodd"><g id="024---Pencil" fill="#000000" fill-rule="nonzero"><path d="M58.366,18.731 L50.316,16.051 C50.2140884,16.0171429 50.1073885,15.9999223 50,16 L44.444,16 C43.8069637,14.8803385 42.6647735,14.1408542 41.3824579,14.0178761 C40.1001422,13.8948979 38.8382259,14.4038209 38,15.382 C37.2501143,14.504913 36.1539541,13.9999189 35,13.9999189 C33.8460459,13.9999189 32.7498857,14.504913 32,15.382 C31.2501143,14.504913 30.1539541,13.9999189 29,13.9999189 C27.8460459,13.9999189 26.7498857,14.504913 26,15.382 C25.1617741,14.4038209 23.8998578,13.8948979 22.6175421,14.0178761 C21.3352265,14.1408542 20.1930363,14.8803385 19.556,16 L3,16 C1.34314575,16 2.02906125e-16,17.3431458 0,19 L0,23 C2.02906125e-16,24.6568542 1.34314575,26 3,26 L15.323,26 L13.572,30.377 C13.1422507,31.4685523 13.2083099,32.6930181 13.753,33.732 L19.789,43.448 C19.9274301,43.7257064 19.999651,44.031704 20,44.342 L20,57 C20,58.1045695 20.8954305,59 22,59 L36,59 C37.1045695,59 38,58.1045695 38,57 L38,46.756 C38.0002718,46.4472054 38.0717938,46.1426381 38.209,45.866 L41.935,40.844 C43.6641748,38.5906325 44.714303,35.8905506 44.962,33.061 C44.987,32.708 45,32.355 45,32 L45,26 L50,26 C50.1073885,26.0000777 50.2140884,25.9828571 50.316,25.949 L58.366,23.269 C59.3423702,22.9431842 60.0008323,22.0292982 60.0008323,21 C60.0008323,19.9707018 59.3423702,19.0568158 58.366,18.731 Z M51,18.387 L54.276,19.478 C53.9080427,20.4593078 53.9080427,21.5406922 54.276,22.522 L51,23.613 L51,18.387 Z M41,16 C42.1045695,16 43,16.8954305 43,18 L43,25 C43,26.1045695 42.1045695,27 41,27 C39.8954305,27 39,26.1045695 39,25 L39,18 C39,16.8954305 39.8954305,16 41,16 Z M35,16 C36.1045695,16 37,16.8954305 37,18 L37,25 C37,26.1045695 36.1045695,27 35,27 C33.8954305,27 33,26.1045695 33,25 L33,18 C33,16.8954305 33.8954305,16 35,16 Z M29,16 C30.1045695,16 31,16.8954305 31,18 L31,21.2 C30.6656305,21.0717413 30.311102,21.0040186 29.953,21 L27,21 L27,18 C27,16.8954305 27.8954305,16 29,16 Z M23,16 C24.1045695,16 25,16.8954305 25,18 L25,21 L21,21 L21,18 C21,16.8954305 21.8954305,16 23,16 Z M19,21.31 C17.715231,21.7737403 16.678689,22.7469682 16.135,24 L14,24 L14,18 L19,18 L19,21.31 Z M12,24 L10,24 L10,18 L12,18 L12,24 Z M2,23 L2,19 C2,18.4477153 2.44771525,18 3,18 L8,18 L8,24 L3,24 C2.44771525,24 2,23.5522847 2,23 Z M42.967,32.919 C42.7455483,35.3684616 41.8304617,37.7040483 40.329,39.652 L36.555,44.738 C36.5266697,44.7769233 36.5009469,44.817679 36.478,44.86 C36.1638248,45.4439932 35.9995771,46.0968605 36,46.76 L36,57 L22,57 L22,44.342 C21.9961827,43.6906001 21.8360277,43.0496373 21.533,42.473 L15.5,32.758 C15.244612,32.2470792 15.2198654,31.6513414 15.432,31.121 L17.926,24.886 C18.3780691,23.744363 19.4831214,22.9960224 20.711,23 L29.953,23 C30.2520717,22.9998147 30.536003,23.1315354 30.729,23.36 C30.9136231,23.5756408 30.9931018,23.862057 30.946,24.142 C30.512,26.7 28.848,28 26,28 L23,28 C22.516525,27.9995159 22.1019428,28.3449888 22.0152183,28.8206222 C21.9284938,29.2962556 22.1944669,29.7658174 22.647,29.936 C22.721,29.964 30,32.79 30,39 C30,39.5522847 30.4477153,40 31,40 C31.5522847,40 32,39.5522847 32,39 C32,34.6 29.228,31.68 26.821,29.97 C28.797634,29.9402393 30.6426295,28.973389 31.792,27.365 C32.5027917,28.3462179 33.6240363,28.9476036 34.8346475,28.9969407 C36.0452586,29.0462778 37.2117212,28.538125 38,27.618 C39.2407158,29.0784779 41.3554833,29.4278375 43,28.444 L43,32 C43,32.307 42.989,32.614 42.967,32.919 Z M45,18 L49,18 L49,24 L45,24 L45,18 Z M57.734,21.371 L56.17,21.892 C55.9433144,21.3189363 55.9433144,20.6810637 56.17,20.108 L57.734,20.629 C57.8927268,20.6831562 57.999418,20.8322887 57.999418,21 C57.999418,21.1677113 57.8927268,21.3168438 57.734,21.371 Z" id="Shape"/><path d="M13,2 C12.4477153,2 12,2.44771525 12,3 L12,5 C12,5.55228475 12.4477153,6 13,6 C13.5522847,6 14,5.55228475 14,5 L14,3 C14,2.44771525 13.5522847,2 13,2 Z" id="Shape"/><path d="M11,6 L9,6 C8.44771525,6 8,6.44771525 8,7 C8,7.55228475 8.44771525,8 9,8 L11,8 C11.5522847,8 12,7.55228475 12,7 C12,6.44771525 11.5522847,6 11,6 Z" id="Shape"/><path d="M12,11 C12,11.5522847 12.4477153,12 13,12 C13.5522847,12 14,11.5522847 14,11 L14,9 C14,8.44771525 13.5522847,8 13,8 C12.4477153,8 12,8.44771525 12,9 L12,11 Z" id="Shape"/><path d="M15,8 L17,8 C17.5522847,8 18,7.55228475 18,7 C18,6.44771525 17.5522847,6 17,6 L15,6 C14.4477153,6 14,6.44771525 14,7 C14,7.55228475 14.4477153,8 15,8 Z" id="Shape"/><path d="M47,41 C46.4477153,41 46,41.4477153 46,42 L46,44 C46,44.5522847 46.4477153,45 47,45 C47.5522847,45 48,44.5522847 48,44 L48,42 C48,41.4477153 47.5522847,41 47,41 Z" id="Shape"/><path d="M45,45 L43,45 C42.4477153,45 42,45.4477153 42,46 C42,46.5522847 42.4477153,47 43,47 L45,47 C45.5522847,47 46,46.5522847 46,46 C46,45.4477153 45.5522847,45 45,45 Z" id="Shape"/><path d="M46,50 C46,50.5522847 46.4477153,51 47,51 C47.5522847,51 48,50.5522847 48,50 L48,48 C48,47.4477153 47.5522847,47 47,47 C46.4477153,47 46,47.4477153 46,48 L46,50 Z" id="Shape"/><path d="M49,47 L51,47 C51.5522847,47 52,46.5522847 52,46 C52,45.4477153 51.5522847,45 51,45 L49,45 C48.4477153,45 48,45.4477153 48,46 C48,46.5522847 48.4477153,47 49,47 Z" id="Shape"/><path d="M9.586,34.586 C9.85119481,34.5859434 10.1055073,34.4805494 10.293,34.293 L11.707,32.878 C12.0859722,32.4856211 12.0805524,31.8619152 11.6948186,31.4761814 C11.3090848,31.0904476 10.6853789,31.0850278 10.293,31.464 L8.879,32.879 C8.59309208,33.1649943 8.50757809,33.5950366 8.66232202,33.9686546 C8.81706595,34.3422725 9.1816041,34.5859137 9.586,34.586 Z" id="Shape"/><path d="M6.05,34.293 C6.44237889,34.6719722 7.06608478,34.6665524 7.45181858,34.2808186 C7.83755237,33.8950848 7.84297221,33.2713789 7.464,32.879 L6.05,31.464 C5.65762111,31.0850278 5.03391522,31.0904476 4.64818142,31.4761814 C4.26244763,31.8619152 4.25702779,32.4856211 4.636,32.878 L6.05,34.293 Z" id="Shape"/><path d="M4.636,38.536 C5.02649985,38.9263819 5.65950015,38.9263819 6.05,38.536 L7.464,37.121 C7.84297221,36.7286211 7.83755237,36.1049152 7.45181858,35.7191814 C7.06608478,35.3334476 6.44237889,35.3280278 6.05,35.707 L4.636,37.122 C4.24561806,37.5124999 4.24561806,38.1455001 4.636,38.536 Z" id="Shape"/><path d="M8.879,37.121 L10.293,38.536 C10.6853789,38.9149722 11.3090848,38.9095524 11.6948186,38.5238186 C12.0805524,38.1380848 12.0859722,37.5143789 11.707,37.122 L10.293,35.707 C10.0419255,35.4470434 9.67012211,35.3427874 9.32049268,35.4343028 C8.97086324,35.5258183 8.69781828,35.7988632 8.60630284,36.1484927 C8.5147874,36.4981221 8.61904342,36.8699255 8.879,37.121 Z" id="Shape"/><path d="M40.561,8.495 C41.2854137,9.21037463 41.7694292,10.1333242 41.946,11.136 C42.0377071,11.6590485 42.4899885,12.0419099 43.021,12.046 C43.5528295,12.0434409 44.0066601,11.6607581 44.099,11.137 C44.4761229,9.08229225 46.0849198,7.47508786 48.14,7.1 C48.6644883,7.00930008 49.0475811,6.55427288 49.0475811,6.022 C49.0475811,5.48972712 48.6644883,5.03469992 48.14,4.944 C47.1341574,4.7663578 46.2086235,4.2798234 45.492,3.552 C44.7650005,2.83717873 44.278502,1.91381011 44.1,0.91 C44.0083615,0.387319642 43.5566331,0.00457027704 43.026,0 C42.4941705,0.00255912782 42.0403399,0.385241942 41.948,0.909 C41.5744849,2.96523479 39.9645117,4.57401243 37.908,4.946 C37.3835117,5.03669992 37.0004189,5.49172712 37.0004189,6.024 C37.0004189,6.55627288 37.3835117,7.01130008 37.908,7.102 C38.9156821,7.2791274 39.843056,7.76605984 40.561,8.495 Z M43.021,3.631 C43.3154154,4.11845863 43.6691113,4.56754836 44.074,4.968 C44.4752927,5.37363083 44.9250105,5.72829998 45.413,6.024 C44.927009,6.31716843 44.4795445,6.66989946 44.081,7.074 C43.6747665,7.47500957 43.3197338,7.92476249 43.024,8.413 C42.7305379,7.92748335 42.3782012,7.48009296 41.975,7.081 C41.5720033,6.67365547 41.1202523,6.31762867 40.63,6.021 C41.6089192,5.42988589 42.4294764,4.60967183 43.021,3.631 Z" id="Shape"/></g></g></svg>
